<?xml version="1.0" encoding="UTF-8"?>
<svg id="Layer_2" data-name="Layer 2" xmlns="http://www.w3.org/2000/svg" viewBox="0 0 86.98 34.37">
  <defs>
    <style>
      .cls-1 {
        fill: #10040a;
        stroke-width: 0px;
      }
    </style>
  </defs>
  <g id="Layer_1-2" data-name="Layer 1">
    <g>
      <path class="cls-1" d="m9.26,34.32c-2.02,0-3.52-.46-4.51-1.37-.99-.91-1.74-2.33-2.26-4.25-.32-1.12-.54-2.26-.65-3.41-.11-1.15-.17-2.11-.17-2.88,0-1.38.1-2.73.29-4.06.19-1.33.29-2.66.29-4.01,0-2.02-.24-3.98-.72-5.9S.58,4.59.1,2.64c-.06-.26-.1-.48-.1-.67C0,1.17.37.77,1.1.77c.35,0,.66.09.91.26.26.18.38.46.38.84,0,.26-.02.5-.05.72-.03.22-.05.46-.05.72,0,1.12.14,2.21.43,3.26.29,1.06.59,2.1.91,3.12.45,1.38,1.07,2.34,1.87,2.9.8.56,2.02.86,3.65.89.9,0,1.67-.02,2.33-.07.66-.05,1.22-.19,1.7-.43.48-.24.9-.6,1.27-1.08.37-.48.71-1.15,1.03-2.02.42-1.06.75-2.14,1.01-3.24.26-1.1.38-2.22.38-3.34,0-.26-.02-.54-.05-.84-.03-.3-.02-.58.02-.84.05-.26.17-.46.36-.62.19-.16.5-.24.91-.24.32,0,.59.1.82.29.22.19.34.46.34.82,0,.16-.03.37-.1.62-.51,1.89-1.02,3.82-1.51,5.78-.5,1.97-.74,3.93-.74,5.88,0,1.44.11,2.87.34,4.3.22,1.42.34,2.86.34,4.3,0,.86-.07,1.88-.22,3.05-.14,1.17-.39,2.31-.74,3.43-.35,1.02-.74,1.86-1.18,2.52-.43.66-.94,1.18-1.54,1.56-.59.38-1.27.65-2.04.79-.77.14-1.65.22-2.64.22Z"/>
      <path class="cls-1" d="m23.52,34.27c-.93,0-1.73-.25-2.4-.74-.67-.5-1.09-1.24-1.25-2.23-.38-2.59-.54-5.25-.46-7.97.08-2.72.55-5.33,1.42-7.82.32-.9.75-1.62,1.3-2.16.54-.54,1.07-1.12,1.58-1.73.51-.61.95-1.34,1.32-2.21.37-.86.55-2.08.55-3.65,0-.67-.07-1.34-.22-1.99-.14-.66-.22-1.3-.22-1.94,0-.35.12-.64.36-.86.24-.22.54-.34.89-.34s.64.11.86.34c.22.22.34.51.34.86,0,.64-.06,1.27-.19,1.9-.13.62-.19,1.26-.19,1.9,0,1.57.19,2.79.58,3.67.38.88.84,1.64,1.37,2.28.53.64,1.08,1.27,1.66,1.9.58.62,1.06,1.46,1.44,2.52.29.8.54,1.92.77,3.36.22,1.44.37,2.95.43,4.54.06,1.58.05,3.11-.05,4.58-.1,1.47-.3,2.61-.62,3.41-.29.74-.72,1.33-1.3,1.78-.58.45-1.38.67-2.4.67l-5.57-.05Z"/>
      <path class="cls-1" d="m49.63,23.33c0-.93.02-1.73.05-2.4.03-.67.06-1.26.07-1.75.02-.5.04-.94.07-1.32.03-.38.05-.75.05-1.1,0-1.06-.11-2.25-.34-3.58-.22-1.33-.58-2.64-1.06-3.94s-1.09-2.49-1.82-3.58c-.74-1.09-1.62-1.89-2.64-2.4-.13-.06-.26-.13-.38-.19-.13-.06-.26-.1-.38-.1-.16,0-.27.1-.34.29-.06.19-.1.42-.12.67-.02.26-.02.51-.02.77v.53c0,1.66.25,3.15.74,4.46.5,1.31,1.35,2.53,2.57,3.65.67.64,1.2,1.46,1.58,2.45.38.99.66,2.06.84,3.19.18,1.14.29,2.26.34,3.38.05,1.12.07,2.11.07,2.98s-.02,1.72-.05,2.57c-.03.85-.1,1.69-.19,2.52-.16,1.28-.57,2.24-1.22,2.88-.66.64-1.64.98-2.95,1.01-.48.03-.95.05-1.42.05h-2.69c-.4,0-.81-.02-1.22-.05-1.06-.03-1.92-.3-2.59-.79-.67-.5-1.09-1.27-1.25-2.33-.29-2.11-.43-4.21-.43-6.29,0-1.47.09-2.93.26-4.37.18-1.44.49-2.86.94-4.27.32-1.02.76-1.86,1.32-2.5.56-.64,1.1-1.27,1.63-1.9.53-.62.99-1.34,1.39-2.16.4-.82.6-1.91.6-3.29,0-.67,0-1.35-.02-2.04-.02-.69-.1-1.37-.26-2.04-.06-.19-.1-.35-.1-.48,0-.45.17-.74.5-.86.34-.13.68-.19,1.03-.19,1.02,0,1.95.29,2.78.86.83.58,1.58,1.22,2.26,1.92.74.74,1.31,1.58,1.73,2.54.42.96.82,1.92,1.2,2.88.13.32.3.7.5,1.15.21.45.45.88.72,1.3.27.42.58.77.94,1.06.35.29.74.43,1.15.43.45,0,.79-.25,1.03-.74.24-.5.41-1.08.5-1.75.1-.67.15-1.34.17-2.02s.02-1.18.02-1.54c0-.9-.07-1.79-.22-2.69-.14-.9-.22-1.68-.22-2.35,0-.35.12-.63.36-.84.24-.21.52-.31.84-.31.35,0,.63.1.84.31.21.21.31.49.31.84,0,.93-.06,1.87-.19,2.83-.13.96-.19,1.92-.19,2.88,0,1.28.12,2.5.36,3.65.24,1.15.66,2.3,1.27,3.46.42.77.74,1.59.98,2.47.24.88.42,1.74.55,2.59.13.85.22,1.66.26,2.45.05.78.07,1.46.07,2.04,0,1.02-.04,2.12-.12,3.29-.08,1.17-.29,2.26-.62,3.29-.34,1.02-.85,1.87-1.54,2.54-.69.67-1.64,1.01-2.86,1.01-1.28,0-2.28-.34-3-1.03-.72-.69-1.26-1.58-1.63-2.66-.37-1.09-.6-2.28-.7-3.58-.1-1.3-.14-2.55-.14-3.77Z"/>
      <path class="cls-1" d="m70.66,34.32c-1.31,0-2.43-.28-3.36-.84-.93-.56-1.7-1.3-2.3-2.21-.61-.91-1.08-1.95-1.42-3.12-.34-1.17-.59-2.37-.77-3.6-.18-1.23-.28-2.45-.31-3.65-.03-1.2-.05-2.28-.05-3.24,0-1.34.06-2.66.19-3.96.13-1.3.34-2.58.62-3.86.32-1.44.82-2.76,1.49-3.96.67-1.2,1.5-2.23,2.47-3.1.98-.86,2.08-1.54,3.31-2.04,1.23-.5,2.6-.74,4.1-.74,2.43,0,4.45.54,6.05,1.63,1.6,1.09,2.86,2.48,3.79,4.18.93,1.7,1.58,3.58,1.94,5.66.37,2.08.55,4.13.55,6.14,0,1.06-.04,2.2-.12,3.43-.08,1.23-.23,2.47-.46,3.72-.22,1.25-.55,2.44-.98,3.58-.43,1.14-1,2.15-1.7,3.05-.7.9-1.56,1.61-2.57,2.14-1.01.53-2.22.79-3.62.79h-6.86Zm13.63-23.38c0-1.54-.29-2.87-.86-4.01-.58-1.14-1.33-2.09-2.26-2.86-.93-.77-1.96-1.34-3.1-1.73-1.14-.38-2.26-.58-3.38-.58-1.06,0-2.07.14-3.05.43-.98.29-1.83.68-2.57,1.18-.74.5-1.32,1.1-1.75,1.8-.43.7-.65,1.47-.65,2.3,0,.93.34,1.81,1.01,2.64.67.83,1.58,1.57,2.74,2.21,1.15.64,2.48,1.14,3.98,1.51,1.5.37,3.09.55,4.75.55,1.44,0,2.66-.27,3.65-.82.99-.54,1.49-1.42,1.49-2.64Z"/>
    </g>
  </g>
</svg>